<svg xmlns="http://www.w3.org/2000/svg" fill="none" viewBox="0 0 24 24"><path fill="#0F0F0F" d="M7 14a1 1 0 1 1 2 0 1 1 0 0 1-2 0ZM8 17a1 1 0 1 0 0 2 1 1 0 0 0 0-2ZM11 14a1 1 0 1 1 2 0 1 1 0 0 1-2 0ZM12 17a1 1 0 1 0 0 2 1 1 0 0 0 0-2ZM15 14a1 1 0 1 1 2 0 1 1 0 0 1-2 0ZM16 17a1 1 0 1 0 0 2 1 1 0 0 0 0-2Z"/><path fill="#0F0F0F" fill-rule="evenodd" d="M6 2a1 1 0 0 1 2 0v1h8V2a1 1 0 1 1 2 0v1h1a3 3 0 0 1 3 3v14a3 3 0 0 1-3 3H5a3 3 0 0 1-3-3V6a3 3 0 0 1 3-3h1V2Zm10 3v1a1 1 0 1 0 2 0V5h1a1 1 0 0 1 1 1v3H4V6a1 1 0 0 1 1-1h1v1a1 1 0 0 0 2 0V5h8ZM4 11v9a1 1 0 0 0 1 1h14a1 1 0 0 0 1-1v-9H4Z" clip-rule="evenodd"/></svg>