<svg xmlns="http://www.w3.org/2000/svg" width="800" height="800" viewBox="0 0 463 463"><path d="M399.5 72H351V45.766c9.29-3.138 16-11.93 16-22.266C367 10.542 356.458 0 343.5 0h-224C106.542 0 96 10.542 96 23.5c0 10.336 6.71 19.128 16 22.266V72H63.5C54.953 72 48 78.953 48 87.5v32c0 48.248 39.252 87.5 87.5 87.5.1 0 .197-.011.296-.015 17.033 22.746 41.975 39.238 70.708 45.377A31.34 31.34 0 0 0 200 271.5c0 10.474 5.143 19.764 13.031 25.495A23.38 23.38 0 0 0 208 311.5v64c0 13.51-10.99 24.5-24.5 24.5h-32c-8.547 0-15.5 6.953-15.5 15.5v32c0 8.547 6.953 15.5 15.5 15.5h160c8.547 0 15.5-6.953 15.5-15.5v-32c0-8.547-6.953-15.5-15.5-15.5h-32c-13.51 0-24.5-10.99-24.5-24.5v-64a23.38 23.38 0 0 0-5.031-14.505C257.857 291.264 263 281.974 263 271.5c0-7.194-2.43-13.829-6.504-19.138 28.733-6.139 53.675-22.631 70.708-45.377.099.004.196.015.296.015 48.248 0 87.5-39.252 87.5-87.5v-32c0-8.547-6.953-15.5-15.5-15.5m-280-57h224c4.687 0 8.5 3.813 8.5 8.5s-3.813 8.5-8.5 8.5h-224c-4.687 0-8.5-3.813-8.5-8.5s3.813-8.5 8.5-8.5M63 119.5v-32c0-.275.225-.5.5-.5H112v48.5c0 20.16 5.025 39.166 13.878 55.842C90.436 186.619 63 156.213 63 119.5M311.5 415c.275 0 .5.225.5.5v32c0 .275-.225.5-.5.5h-160a.5.5 0 0 1-.5-.5v-32c0-.275.225-.5.5-.5zM240 311.5v64c0 9.25 3.205 17.761 8.551 24.5H214.45c5.346-6.739 8.551-15.25 8.551-24.5v-64c0-4.687 3.813-8.5 8.5-8.5s8.499 3.813 8.499 8.5m8-40c0 9.098-7.402 16.5-16.5 16.5s-16.5-7.402-16.5-16.5 7.402-16.5 16.5-16.5 16.5 7.402 16.5 16.5M231.5 240C173.879 240 127 193.121 127 135.5V47h209v88.5c0 57.621-46.879 104.5-104.5 104.5M400 119.5c0 36.713-27.436 67.119-62.878 71.842C345.975 174.666 351 155.66 351 135.5V87h48.5c.275 0 .5.225.5.5z"/></svg>