<svg xmlns="http://www.w3.org/2000/svg" width="800" height="800" viewBox="0 0 1920 1920"><path fill-rule="evenodd" d="M600 1440c132.36 0 240 107.64 240 240s-107.64 240-240 240-240-107.64-240-240 107.64-240 240-240m720 0c132.36 0 240 107.64 240 240s-107.64 240-240 240-240-107.64-240-240 107.64-240 240-240M600 720c132.36 0 240 107.64 240 240s-107.64 240-240 240-240-107.64-240-240 107.64-240 240-240m720 0c132.36 0 240 107.64 240 240s-107.64 240-240 240-240-107.64-240-240 107.64-240 240-240M600 0c132.36 0 240 107.64 240 240S732.36 480 600 480 360 372.36 360 240 467.64 0 600 0m720 0c132.36 0 240 107.64 240 240s-107.64 240-240 240-240-107.64-240-240S1187.64 0 1320 0"/></svg>