<svg xmlns="http://www.w3.org/2000/svg" viewBox="-1 0 16 16"><path d="M13.961 5.308a.5.5 0 0 0-.108-.162l-5-5a.5.5 0 0 0-.162-.108A.5.5 0 0 0 8.5 0h-6A2.5 2.5 0 0 0 0 2.5v11A2.5 2.5 0 0 0 2.5 16h9a2.5 2.5 0 0 0 2.5-2.5v-8a.5.5 0 0 0-.039-.192ZM9 1.707 12.293 5H10.5A1.5 1.5 0 0 1 9 3.5ZM11.5 15h-9A1.5 1.5 0 0 1 1 13.5v-11A1.5 1.5 0 0 1 2.5 1H8v2.5A2.5 2.5 0 0 0 10.5 6H13v7.5a1.5 1.5 0 0 1-1.5 1.5Zm-.5-2.5a.5.5 0 0 1-.5.5h-7a.5.5 0 0 1-.5-.5.5.5 0 0 1 .5-.5h7a.5.5 0 0 1 .5.5Zm0-3a.5.5 0 0 1-.5.5h-7a.5.5 0 0 1-.5-.5.5.5 0 0 1 .5-.5h7a.5.5 0 0 1 .5.5Z" data-name="Path 105"/></svg>