<svg xmlns="http://www.w3.org/2000/svg" width="800" height="800" viewBox="-3 0 32 32"><title>fire-2</title><path fill="#000" fill-rule="evenodd" d="M13.5 30C7.148 30 2 24.641 2 18.625c0-1.397.031-2.531 1-3.625-.105.634 1.397 6.055 6.305 5.771-.213-4.119-1.327-14.21 3.847-17.698-.457 5.484.886 12.851 6.877 13.927-.343-2.199-.302-5.857 1.238-6.533.166 3.369 2.657 5.447 2.657 8.685C23.924 25.016 18.251 30 13.5 30m9.405-23.047C18.52 8.203 17.717 11.748 18 14c-3.128-3.678-3-7.907-3-14C4.968 3.783 7.301 14.688 7 18c-2.523-2.065-3-7-3-7-2.664 1.371-4 5.031-4 8 0 7.18 5.82 13 13 13s13-5.82 13-13c0-4.267-3.133-6.235-3.095-12.047"/></svg>