<svg xmlns="http://www.w3.org/2000/svg" xml:space="preserve" viewBox="796 517.876 200 200"><path d="m993.286 603.953-32.115-46.063a15.106 15.106 0 0 0-12.39-6.466H843.218a15.11 15.11 0 0 0-12.389 6.465l-32.116 46.065a15.034 15.034 0 0 0-2.713 8.637v56.635c0 8.328 6.775 15.104 15.103 15.104h169.793c8.328 0 15.104-6.775 15.104-15.104V612.59c0-3.104-.939-6.091-2.714-8.637zm-152.611-39.202a3.101 3.101 0 0 1 2.543-1.327h105.563c1.014 0 1.965.496 2.545 1.328l25.077 35.97a1.913 1.913 0 0 1-1.569 3.007h-33.47a15.057 15.057 0 0 0-13.4 8.136l-8.869 17.059a3.098 3.098 0 0 1-2.754 1.672H875.66a3.091 3.091 0 0 1-2.751-1.67l-8.872-17.062a15.055 15.055 0 0 0-13.4-8.135h-33.47a1.914 1.914 0 0 1-1.57-3.008l25.078-35.97zm140.221 107.576H811.103a3.105 3.105 0 0 1-3.102-3.102v-51.38c0-1.168.947-2.114 2.114-2.114h40.521c1.162 0 2.215.641 2.751 1.671l8.873 17.062a15.053 15.053 0 0 0 13.399 8.135h40.68a15.06 15.06 0 0 0 13.4-8.135l8.871-17.059a3.092 3.092 0 0 1 2.752-1.673h40.521c1.168 0 2.113.946 2.113 2.114v51.379a3.101 3.101 0 0 1-3.1 3.102z"/></svg>