<svg xmlns="http://www.w3.org/2000/svg" xml:space="preserve" width="800" height="800" viewBox="0 0 503.607 503.607"><path d="m422.07 149.419 12.665-12.665 6.655 6.774c1.679 1.679 3.357 2.518 5.875 2.518s4.197-.839 5.875-2.518l7.554-6.715c12.59-13.43 12.59-34.413 0-47.003l-12.59-12.59c-13.43-12.59-34.413-12.59-47.003 0l-6.715 6.715c-3.357 3.357-3.357 8.393 0 11.751l5.407 5.504-13.067 13.067C355.741 89.723 318.006 73.4 276.879 68.62V50.361h16.787c5.036 0 8.393-3.357 8.393-8.393V8.393c0-5.036-3.357-8.393-8.393-8.393h-83.934c-5.036 0-8.393 3.357-8.393 8.393v33.574c0 5.036 3.357 8.393 8.393 8.393h16.787v18.259c-41.334 4.805-79.24 21.272-110.313 46.011l-13.07-13.07 5.875-5.875c3.357-3.357 3.357-8.393 0-11.751l-5.875-6.715c-12.59-12.59-33.574-12.59-46.164 0l-13.43 13.43c-12.59 12.59-12.59 33.574 0 46.164l6.715 6.715c1.679 1.679 3.357 2.518 5.875 2.518 1.679 0 4.197-.839 5.036-2.518l6.715-6.715 13.07 13.07C51.266 187.172 33.47 234.294 33.47 285.377c0 59.607 23.896 113.488 62.503 152.804a9 9 0 0 0 1.287 1.636 9.8 9.8 0 0 0 1.803 1.449c39.43 38.589 93.367 62.341 152.636 62.341 59.409 0 113.462-23.863 152.916-62.613a8 8 0 0 0 1.524-1.177 9 9 0 0 0 1.287-1.636c38.608-39.316 62.503-93.196 62.503-152.804-.001-51.296-17.948-98.596-47.859-135.958m13.445-60.448 12.59 12.59c6.715 5.875 6.715 15.948 0 22.662l-.839.839-35.253-35.252c6.715-6.715 16.787-6.715 23.502-.839m.839 204.8h16.598c-2.04 49.134-21.892 93.865-53.237 127.872l-16.239-16.239c-3.357-3.357-8.393-3.357-11.751 0s-3.357 8.393 0 11.751l16.239 16.239c-34.007 31.345-78.739 51.196-127.872 53.237v-16.598c0-5.036-3.357-8.393-8.393-8.393s-8.393 3.357-8.393 8.393v16.598c-49.134-2.04-93.865-21.892-127.872-53.237l16.239-16.239c3.357-3.357 3.357-8.393 0-11.751s-8.393-3.357-11.751 0l-16.239 16.239c-31.345-34.007-51.196-78.738-53.237-127.872h16.598c5.036 0 8.393-3.357 8.393-8.393s-3.357-8.393-8.393-8.393H50.445c2.04-49.134 21.892-93.865 53.237-127.872l16.239 16.239c1.679 1.679 3.357 2.518 5.875 2.518s4.197-.839 5.875-2.518c3.357-3.357 3.357-8.393 0-11.751l-16.239-16.239c31.95-29.449 73.366-48.753 119.006-52.673.435.051.873.086 1.312.086 2.663-.19 5.148-.335 7.554-.439v16.387c0 5.036 3.357 8.393 8.393 8.393s8.393-3.357 8.393-8.393V84.318c2.629.105 5.389.256 8.393.456q.49-.001.941-.044c43.023 3.797 82.275 21.261 113.351 48.006 1.731 1.681 3.45 3.237 5.099 4.713L371.725 153.6c-3.357 3.357-3.357 8.393 0 11.751 1.679 1.679 3.357 2.518 5.875 2.518s4.197-.839 5.875-2.518l16.107-16.107c1.522 1.692 3.123 3.442 4.877 5.195.321.482.682.885 1.059 1.25 27.979 33.104 45.522 75.267 47.434 121.294h-16.598c-5.036 0-8.393 3.357-8.393 8.393s3.357 8.395 8.393 8.395m-24.341-156.119-.874-.874a222 222 0 0 0-3.311-3.473 8.8 8.8 0 0 0-1.69-2.368 8.8 8.8 0 0 0-2.187-1.603c-1.058-1.209-2.231-2.461-3.688-3.433l11.751-11.751 11.751 11.751zM218.125 16.787h67.148v16.787h-67.148zm25.18 50.361V50.361h16.787v16.787h-16.787M55.292 125.902c-5.875-6.715-5.875-16.787 0-22.662l13.43-13.43c2.518-3.357 6.715-5.036 10.911-5.036s8.393 1.679 10.911 4.197l.839 2.518-1.928 1.928c-1.423.358-2.786 1.108-3.947 2.269l-23.502 23.502c-1.161 1.161-1.911 2.524-2.269 3.947l-3.607 3.607zm30.353-6.852 5.739-5.739 11.751 11.751-5.875 5.875c-1.679 1.679-4.197 3.357-5.875 5.875l-11.751-11.751z"/><path d="M260.092 252.873V142.689c0-5.036-3.357-8.393-8.393-8.393s-8.393 3.357-8.393 8.393v110.185c-14.439 3.752-25.18 16.934-25.18 32.504 0 18.466 15.108 33.574 33.574 33.574s33.574-15.108 33.574-33.574c-.002-15.571-10.744-28.753-25.182-32.505m-8.394 49.291c-9.233 0-16.787-7.554-16.787-16.787s7.554-16.787 16.787-16.787 16.787 7.554 16.787 16.787-7.554 16.787-16.787 16.787"/></svg>